<?xml version="1.0" standalone="no"?>
<!DOCTYPE svg PUBLIC "-//W3C//DTD SVG 20010904//EN"
 "http://www.w3.org/TR/2001/REC-SVG-20010904/DTD/svg10.dtd">
<svg version="1.0" xmlns="http://www.w3.org/2000/svg"
 width="300.000000pt" height="130.000000pt" viewBox="0 0 300.000000 130.000000"
 preserveAspectRatio="xMidYMid meet">

<g transform="translate(0.000000,130.000000) scale(0.100000,-0.100000)"
fill="#000000" stroke="none">
<path d="M1178 1084 c-9 -18 -9 -30 -1 -42 12 -20 -2 -71 -24 -87 -8 -6 -13
-15 -12 -20 3 -13 -15 -53 -40 -90 -22 -31 -28 -75 -11 -75 12 0 66 72 88 117
26 55 65 52 70 -4 6 -73 49 -140 75 -114 9 9 9 14 -1 20 -16 10 -45 165 -32
169 40 14 215 110 218 119 8 28 -32 25 -96 -7 -75 -38 -170 -80 -178 -80 -3 0
-2 10 2 23 24 72 -28 136 -58 71z"/>
<path d="M1670 1095 c-7 -8 -21 -15 -31 -15 -13 0 -30 -24 -58 -80 -22 -43
-46 -88 -53 -99 -9 -15 -9 -23 1 -35 18 -22 28 -20 43 8 31 58 78 133 102 161
23 28 25 28 26 8 0 -11 -9 -49 -19 -83 -33 -104 0 -122 71 -40 l43 51 0 -41
c1 -46 20 -74 35 -50 5 8 12 35 15 61 12 85 -30 117 -78 59 -29 -34 -43 -39
-27 -11 5 11 10 35 10 54 0 54 -51 87 -80 52z"/>
<path d="M1497 1028 c-20 -40 -52 -98 -71 -128 -26 -41 -33 -62 -29 -82 5 -26
23 -40 23 -18 0 5 30 56 66 112 73 113 94 165 72 179 -22 14 -25 12 -61 -63z"/>
<path d="M2599 963 c-5 -16 -11 -32 -13 -38 -4 -11 -120 -166 -168 -225 -27
-34 -37 -83 -19 -95 5 -3 20 9 32 27 13 18 44 58 69 88 108 128 163 227 140
255 -18 22 -29 18 -41 -12z"/>
<path d="M900 789 c-25 -12 -58 -28 -73 -35 -16 -7 -41 -11 -55 -8 -22 4 -32
-2 -52 -30 -18 -25 -40 -40 -75 -52 -60 -20 -57 -17 -49 -38 10 -25 74 -16
141 22 31 17 33 16 33 -28 0 -77 -99 -240 -146 -240 -16 0 -37 37 -29 50 3 6
1 10 -4 10 -19 0 -12 -34 12 -64 20 -25 28 -28 52 -22 36 9 92 69 130 138 24
44 29 66 30 125 2 90 3 91 173 164 17 8 32 17 32 21 0 16 -77 7 -120 -13z"/>
<path d="M1723 755 c-8 -23 5 -34 53 -41 26 -4 43 -11 41 -18 -4 -13 -125 -75
-149 -76 -15 0 -15 5 -3 50 13 47 12 51 -7 61 -22 12 -37 -1 -38 -31 0 -8 -19
-49 -42 -90 -87 -160 -82 -146 -64 -185 9 -19 21 -35 27 -35 15 0 207 98 214
110 11 18 25 11 25 -14 0 -27 14 -42 52 -51 44 -11 108 42 165 137 15 26 30
48 33 48 3 0 18 -25 33 -56 21 -45 24 -60 15 -71 -19 -24 -71 -47 -100 -45
-31 3 -33 0 -18 -29 19 -34 101 -16 149 33 39 40 39 58 1 120 -16 26 -30 57
-30 67 0 35 81 84 103 62 16 -16 37 -14 37 4 0 36 -107 46 -146 14 -9 -8 -22
-14 -29 -14 -14 0 -54 -47 -74 -87 -32 -63 -141 -165 -141 -132 0 20 48 103
89 152 37 44 47 62 38 71 -6 6 -16 11 -23 11 -17 0 -63 -49 -103 -110 -36 -56
-36 -56 -64 -40 -32 18 -34 26 -8 35 10 3 37 19 60 35 52 38 57 81 12 100 -57
23 -102 29 -108 15z m-13 -202 l35 -9 -25 -16 c-14 -10 -60 -33 -104 -53 l-78
-36 21 33 c12 18 31 49 43 69 19 31 25 35 47 28 14 -4 42 -12 61 -16z"/>
<path d="M1017 688 c-127 -128 -199 -220 -191 -242 11 -29 32 -17 79 44 25 33
53 60 61 60 21 0 18 -12 -21 -66 -35 -49 -45 -97 -23 -110 7 -4 16 0 22 10 56
95 112 164 155 193 64 43 70 53 31 53 l-31 0 16 30 c21 41 19 77 -5 90 -18 10
-29 2 -93 -62z m23 -62 c-12 -20 -28 -36 -36 -36 -20 0 -18 5 17 45 39 44 49
39 19 -9z"/>
<path d="M1265 711 c-53 -32 -187 -194 -206 -250 -10 -27 -8 -35 7 -52 23 -26
66 -19 134 21 l49 29 21 -26 c17 -22 26 -25 59 -20 49 6 132 73 157 125 26 55
20 112 -12 112 -10 0 -13 -7 -8 -25 7 -27 -29 -97 -63 -125 -35 -29 -72 -50
-88 -50 -22 0 11 46 82 117 53 53 64 72 41 74 -31 3 -47 -6 -103 -60 -33 -32
-92 -76 -131 -99 -109 -65 -118 -57 -47 39 65 90 101 131 140 157 28 19 32 26
22 38 -15 18 -18 18 -54 -5z"/>
<path d="M2326 421 c-9 -14 4 -41 19 -41 21 0 28 19 15 35 -14 17 -26 19 -34
6z"/>
</g>
</svg>
